<svg xmlns="http://www.w3.org/2000/svg" viewBox="0 0 1200 630" width="1200" height="630" role="img" aria-label="varde — The smallest stack you need to run your app">
  <defs>
    <linearGradient id="og-stone" gradientUnits="userSpaceOnUse" x1="0" y1="430" x2="0" y2="150">
      <stop offset="0" stop-color="#3DE7C7"/>
      <stop offset="0.45" stop-color="#4D87FF"/>
      <stop offset="0.78" stop-color="#9A7CFF"/>
      <stop offset="1" stop-color="#C77DFF"/>
    </linearGradient>
    <linearGradient id="og-text" x1="0" y1="0" x2="1" y2="0.3">
      <stop offset="0" stop-color="#9af0de"/>
      <stop offset="0.45" stop-color="#9fbcff"/>
      <stop offset="0.8" stop-color="#c4adff"/>
      <stop offset="1" stop-color="#e0acff"/>
    </linearGradient>
    <radialGradient id="og-glow-a" cx="0.5" cy="0.5" r="0.5">
      <stop offset="0" stop-color="#4D87FF" stop-opacity="0.5"/>
      <stop offset="1" stop-color="#4D87FF" stop-opacity="0"/>
    </radialGradient>
    <radialGradient id="og-glow-b" cx="0.5" cy="0.5" r="0.5">
      <stop offset="0" stop-color="#C77DFF" stop-opacity="0.42"/>
      <stop offset="1" stop-color="#C77DFF" stop-opacity="0"/>
    </radialGradient>
    <radialGradient id="og-glow-c" cx="0.5" cy="0.5" r="0.5">
      <stop offset="0" stop-color="#3DE7C7" stop-opacity="0.38"/>
      <stop offset="1" stop-color="#3DE7C7" stop-opacity="0"/>
    </radialGradient>
  </defs>

  <rect width="1200" height="630" fill="#070A10"/>
  <circle cx="430" cy="120" r="430" fill="url(#og-glow-a)"/>
  <circle cx="980" cy="40" r="380" fill="url(#og-glow-b)"/>
  <circle cx="180" cy="80" r="320" fill="url(#og-glow-c)"/>

  <!-- varde mark -->
  <g transform="translate(840 250) scale(7.2)" fill="url(#og-stone)">
    <ellipse cx="16" cy="26.4" rx="11" ry="3.5" transform="rotate(-2 16 26.4)"/>
    <ellipse cx="14.6" cy="20.2" rx="8.4" ry="3.1" transform="rotate(3 14.6 20.2)"/>
    <ellipse cx="17.1" cy="14.6" rx="6.4" ry="2.7" transform="rotate(-3 17.1 14.6)"/>
    <ellipse cx="15.4" cy="9.6" rx="4.5" ry="2.3" transform="rotate(4 15.4 9.6)"/>
    <ellipse cx="16.6" cy="5.4" rx="2.7" ry="1.8"/>
  </g>

  <g font-family="system-ui, -apple-system, 'Segoe UI', Roboto, sans-serif">
    <text x="90" y="150" font-family="ui-monospace, 'SF Mono', Menlo, monospace" font-size="24" letter-spacing="6" fill="#7C879B">DISTROLESS · NIX-BUILT · NON-ROOT</text>
    <text x="86" y="250" font-size="78" font-weight="700" letter-spacing="-3" fill="url(#og-text)">The smallest stack</text>
    <text x="86" y="340" font-size="78" font-weight="700" letter-spacing="-3" fill="url(#og-text)">you need to run your app.</text>
    <text x="90" y="430" font-size="30" fill="#B7C2D4">Minimal, distroless, non-root base images for Java,</text>
    <text x="90" y="472" font-size="30" fill="#B7C2D4">Python, Node, Go &amp; Rust — built with Nix.</text>
    <text x="90" y="566" font-family="ui-monospace, 'SF Mono', Menlo, monospace" font-size="24" fill="#7C879B">ghcr.io/mathiasror</text>
  </g>
</svg>
